<svg xmlns="http://www.w3.org/2000/svg" viewBox="0 0 640 480" role="img" aria-labelledby="title desc">
  <title id="title">Car cleaning kit</title>
  <desc id="desc">Car cleaning kit with bottles, sponge, cloth, and bucket.</desc>
  <rect width="640" height="480" rx="36" fill="#f8fafc"/>
  <path d="M374 168h122l-26 220H400z" fill="#dbeafe" stroke="#1d4ed8" stroke-width="8" stroke-linejoin="round"/>
  <path d="M376 168c14-48 118-48 124 0" fill="none" stroke="#1d4ed8" stroke-width="12" stroke-linecap="round"/>
  <rect x="152" y="180" width="74" height="192" rx="18" fill="#22c55e" stroke="#166534" stroke-width="8"/>
  <rect x="168" y="130" width="42" height="58" rx="10" fill="#166534"/>
  <rect x="252" y="212" width="72" height="160" rx="16" fill="#38bdf8" stroke="#0369a1" stroke-width="8"/>
  <rect x="268" y="166" width="40" height="54" rx="10" fill="#0369a1"/>
  <rect x="102" y="342" width="138" height="52" rx="16" fill="#fde047" stroke="#ca8a04" stroke-width="8"/>
  <path d="M86 300c44-28 104-22 142 14" fill="none" stroke="#fb7185" stroke-width="24" stroke-linecap="round"/>
  <path d="M330 336c36-22 82-18 112 8" fill="none" stroke="#94a3b8" stroke-width="22" stroke-linecap="round"/>
  <circle cx="446" cy="280" r="20" fill="#bfdbfe"/>
  <circle cx="188" cy="266" r="16" fill="#dcfce7"/>
</svg>
