<svg xmlns="http://www.w3.org/2000/svg" viewBox="0 0 640 480" role="img" aria-labelledby="title desc">
  <title id="title">Jumper cables</title>
  <desc id="desc">Red and black jumper cables with battery clamps.</desc>
  <rect width="640" height="480" rx="36" fill="#fff7ed"/>
  <path d="M136 292c42-122 240-178 364-84" fill="none" stroke="#dc2626" stroke-width="26" stroke-linecap="round"/>
  <path d="M130 338c86-128 250-156 380-46" fill="none" stroke="#111827" stroke-width="22" stroke-linecap="round"/>
  <path d="M138 292l-62 46 84 64 42-72z" fill="#ef4444" stroke="#991b1b" stroke-width="8" stroke-linejoin="round"/>
  <path d="M498 208l70 28-52 92-60-58z" fill="#ef4444" stroke="#991b1b" stroke-width="8" stroke-linejoin="round"/>
  <path d="M130 338l-66 36 70 74 52-64z" fill="#1f2937" stroke="#020617" stroke-width="8" stroke-linejoin="round"/>
  <path d="M510 292l76 18-42 96-66-48z" fill="#1f2937" stroke="#020617" stroke-width="8" stroke-linejoin="round"/>
  <circle cx="154" cy="356" r="13" fill="#f8fafc"/>
  <circle cx="498" cy="336" r="13" fill="#f8fafc"/>
  <path d="M82 358l60 46M482 220l52 30M74 388l54 44M516 324l48 32" stroke="#e5e7eb" stroke-width="8" stroke-linecap="round"/>
</svg>
