<svg xmlns="http://www.w3.org/2000/svg" viewBox="0 0 640 480" role="img" aria-labelledby="title desc">
  <title id="title">Tire pressure gauge</title>
  <desc id="desc">Digital tire pressure gauge with hose and connector.</desc>
  <rect width="640" height="480" rx="36" fill="#f0fdf4"/>
  <circle cx="380" cy="180" r="92" fill="#0f172a"/>
  <circle cx="380" cy="180" r="70" fill="#e5f9ed"/>
  <rect x="334" y="154" width="92" height="38" rx="8" fill="#22c55e"/>
  <text x="380" y="180" text-anchor="middle" dominant-baseline="middle" font-family="Arial, sans-serif" font-size="22" font-weight="700" fill="#052e16">32</text>
  <path d="M347 248l-58 116c-9 18 4 38 24 38h78c20 0 33-21 23-39l-62-115z" fill="#111827"/>
  <rect x="319" y="308" width="64" height="26" rx="8" fill="#374151"/>
  <path d="M290 220c-95 9-145 42-150 102" fill="none" stroke="#111827" stroke-width="22" stroke-linecap="round"/>
  <path d="M140 322l-40 30" fill="none" stroke="#64748b" stroke-width="18" stroke-linecap="round"/>
  <rect x="70" y="340" width="80" height="34" rx="10" fill="#94a3b8"/>
  <rect x="103" y="328" width="36" height="58" rx="8" fill="#cbd5e1"/>
  <circle cx="468" cy="118" r="14" fill="#86efac"/>
</svg>
